<?xml version="1.0" encoding="UTF-8"?>
<svg width="133px" height="66px" viewBox="0 0 133 66" version="1.1" xmlns="http://www.w3.org/2000/svg" xmlns:xlink="http://www.w3.org/1999/xlink">
    <!-- Generator: Sketch 54.1 (76490) - https://sketchapp.com -->
    <title>Group 2</title>
    <desc>Created with Sketch.</desc>
    <defs>
        <filter x="-70.9%" y="-557.1%" width="241.8%" height="1214.3%" filterUnits="objectBoundingBox" id="filter-1">
            <feGaussianBlur stdDeviation="13 0" in="SourceGraphic"></feGaussianBlur>
        </filter>
    </defs>
    <g id="Page-1" stroke="none" stroke-width="1" fill="none" fill-rule="evenodd">
        <g id="desktop-1440" transform="translate(-1254.000000, -791.000000)" fill-rule="nonzero">
            <g id="Group-2" transform="translate(1293.000000, 791.000000)">
                <ellipse id="Oval" fill="#FFCBD6" filter="url(#filter-1)" cx="27.5" cy="62.5" rx="27.5" ry="3.5"></ellipse>
                <path d="M42.25,26.359375 C42.25,27.7141985 41.1516985,28.8125 39.796875,28.8125 C38.4420515,28.8125 37.34375,27.7141985 37.34375,26.359375 C37.34375,25.004792 38.4416615,23.90664 39.7961534,23.9062501 C40.5221614,23.9065425 41.143775,24.3471781 41.4093513,24.975071 C41.333307,24.7870607 41.2051662,24.5896675 41.0343119,24.4188131 C40.6927866,24.0772879 40.2452201,23.9064336 39.7975966,23.9062501 C41.1520885,23.90664 42.25,25.004792 42.25,26.359375 Z M30.296875,36.203125 C30.296875,37.5579485 29.1985735,38.65625 27.84375,38.65625 C26.4889265,38.65625 25.390625,37.5579485 25.390625,36.203125 C25.390625,34.848542 26.4885365,33.75039 27.8430284,33.7500001 C28.5690364,33.7502925 29.19065,34.1909281 29.4562263,34.818821 C29.380182,34.6308107 29.2520412,34.4334175 29.0811869,34.2625631 C28.7396616,33.9210379 28.2920951,33.7501836 27.8444716,33.7500001 C29.1989635,33.75039 30.296875,34.848542 30.296875,36.203125 Z M42.296875,36.203125 C42.296875,37.5579485 41.1985735,38.65625 39.84375,38.65625 C38.4889265,38.65625 37.390625,37.5579485 37.390625,36.203125 C37.390625,34.848542 38.4885365,33.75039 39.8430284,33.7500001 C40.5690364,33.7502925 41.19065,34.1909281 41.4562263,34.818821 C41.380182,34.6308107 41.2520412,34.4334175 41.0811869,34.2625631 C40.7396616,33.9210379 40.2920951,33.7501836 39.8444716,33.7500001 C41.1989635,33.75039 42.296875,34.848542 42.296875,36.203125 Z M18.34375,26.359375 C18.34375,27.7141985 17.2454485,28.8125 15.890625,28.8125 C14.5358015,28.8125 13.4375,27.7141985 13.4375,26.359375 C13.4375,25.004792 14.5354115,23.90664 15.8899034,23.9062501 C16.6159114,23.9065425 17.237525,24.3471781 17.5031013,24.975071 C17.427057,24.7870607 17.2989162,24.5896675 17.1280619,24.4188131 C16.7865366,24.0772879 16.3389701,23.9064336 15.8913466,23.9062501 C17.2458385,23.90664 18.34375,25.004792 18.34375,26.359375 Z M30.34375,26.359375 C30.34375,27.7141985 29.2454485,28.8125 27.890625,28.8125 C26.5358015,28.8125 25.4375,27.7141985 25.4375,26.359375 C25.4375,25.004792 26.5354115,23.90664 27.8899034,23.9062501 C28.6159114,23.9065425 29.237525,24.3471781 29.5031013,24.975071 C29.427057,24.7870607 29.2989162,24.5896675 29.1280619,24.4188131 C28.7865366,24.0772879 28.3389701,23.9064336 27.8913466,23.9062501 C29.2458385,23.90664 30.34375,25.004792 30.34375,26.359375 Z M18.34375,36.359375 C18.34375,37.7141985 17.2454485,38.8125 15.890625,38.8125 C14.5358015,38.8125 13.4375,37.7141985 13.4375,36.359375 C13.4375,35.004792 14.5354115,33.90664 15.8899034,33.9062501 C16.6159114,33.9065425 17.237525,34.3471781 17.5031013,34.975071 C17.427057,34.7870607 17.2989162,34.5896675 17.1280619,34.4188131 C16.7865366,34.0772879 16.3389701,33.9064336 15.8913466,33.9062501 C17.2458385,33.90664 18.34375,35.004792 18.34375,36.359375 Z M35.9375,9.125 L19.75,9.125 L19.75,11.59375 C19.75,12.5602483 18.9664983,13.34375 18,13.34375 C17.0335017,13.34375 16.25,12.5602483 16.25,11.59375 L16.25,9.125 L8.5,9.125 L8.5,16.875 L47.1875,16.875 L47.1875,9.125 L39.4375,9.125 L39.4375,11.59375 C39.4375,12.5602483 38.6539983,13.34375 37.6875,13.34375 C36.7210017,13.34375 35.9375,12.5602483 35.9375,11.59375 L35.9375,9.125 Z M39.4375,5.625 L47.4375,5.625 C49.2324254,5.625 50.6875,7.08007456 50.6875,8.875 L50.6875,42.4375 C50.6875,44.2324254 49.2324254,45.6875 47.4375,45.6875 L8.25,45.6875 C6.45507456,45.6875 5,44.2324254 5,42.4375 L5,8.875 C5,7.08007456 6.45507456,5.625 8.25,5.625 L16.25,5.625 L16.25,1.75 C16.25,0.783501688 17.0335017,0 18,0 C18.9664983,0 19.75,0.783501688 19.75,1.75 L19.75,5.625 L35.9375,5.625 L35.9375,1.75 C35.9375,0.783501688 36.7210017,0 37.6875,0 C38.6539983,0 39.4375,0.783501688 39.4375,1.75 L39.4375,5.625 Z M47.1875,20.375 L8.5,20.375 L8.5,42.1875 L47.1875,42.1875 L47.1875,20.375 Z" id="Rectangle-4" fill="#F91F4C"></path>
            </g>
        </g>
    </g>
</svg>