<?xml version="1.0" encoding="UTF-8"?>
<svg width="55px" height="55px" viewBox="0 0 55 55" version="1.1" xmlns="http://www.w3.org/2000/svg" xmlns:xlink="http://www.w3.org/1999/xlink">
    <!-- Generator: Sketch 54.1 (76490) - https://sketchapp.com -->
    <title>Path 3</title>
    <desc>Created with Sketch.</desc>
    <g id="Page-1" stroke="none" stroke-width="1" fill="none" fill-rule="evenodd" stroke-linecap="round" stroke-linejoin="round">
        <g id="desktop-1440" transform="translate(-79.000000, -1921.000000)" stroke="#F91F4C" stroke-width="3.375">
            <path d="M98.68125,1930.185 L114.9375,1936.6875 L131.19375,1930.185 M114.9375,1958.625 C116.049134,1958.62849 117.149116,1958.39853 118.16625,1957.95 L129.80775,1952.775 C131.026951,1952.23335 131.812669,1951.02435 131.8125,1949.69025 L131.8125,1932.14025 C131.812669,1930.80615 131.026951,1929.59715 129.80775,1929.0555 L118.16625,1923.8805 C116.111005,1922.96542 113.763995,1922.96542 111.70875,1923.8805 L100.06725,1929.0555 C98.8510272,1929.59582 98.0658819,1930.80041 98.0625,1932.13125 L98.0625,1938.375 M98.0625,1944.306 C98.2864597,1944.3054 98.5014194,1944.3941 98.6597834,1944.55247 C98.8181474,1944.71083 98.9068496,1944.92579 98.90625,1945.14975 M97.21875,1945.14975 C97.2181504,1944.92579 97.3068526,1944.71083 97.4652166,1944.55247 C97.6235806,1944.3941 97.8385403,1944.3054 98.0625,1944.306 M98.0625,1945.9935 C97.5965097,1945.9935 97.21875,1945.61574 97.21875,1945.14975 M98.90625,1945.14975 C98.90625,1945.61574 98.5284903,1945.9935 98.0625,1945.9935 M108.7005,1954.28025 C108.92446,1954.27965 109.139419,1954.36835 109.297783,1954.52672 C109.456147,1954.68508 109.54485,1954.90004 109.54425,1955.124 M107.85,1955.124 C107.8494,1954.90004 107.938103,1954.68508 108.096467,1954.52672 C108.254831,1954.36835 108.46979,1954.27965 108.69375,1954.28025 M108.7005,1955.96775 C108.23451,1955.96775 107.85675,1955.58999 107.85675,1955.124 M109.54425,1955.124 C109.54425,1955.58999 109.16649,1955.96775 108.7005,1955.96775 M92.15625,1965.0195 C92.6222403,1965.0195 93,1965.39726 93,1965.86325 M91.3125,1965.86325 C91.3125,1965.39726 91.6902597,1965.0195 92.15625,1965.0195 M92.15625,1966.707 C91.6902597,1966.707 91.3125,1966.32924 91.3125,1965.86325 M93,1965.86325 C93,1966.32924 92.6222403,1966.707 92.15625,1966.707 M86.25,1952.36325 C86.7159903,1952.36325 87.09375,1952.74101 87.09375,1953.207 M85.40625,1953.207 C85.40625,1952.74101 85.7840097,1952.36325 86.25,1952.36325 M86.25,1954.05075 C85.7840097,1954.05075 85.40625,1953.67299 85.40625,1953.207 M87.09375,1953.207 C87.09375,1953.67299 86.7159903,1954.05075 86.25,1954.05075 M88.90725,1958.2785 C89.1286942,1958.3118 89.3278165,1958.43177 89.4607549,1958.61198 C89.5936934,1958.79218 89.6495425,1959.01784 89.616,1959.23925 M87.9465,1958.98725 C88.0170026,1958.52678 88.4464878,1958.20995 88.90725,1958.2785 M88.65525,1959.948 C88.1947824,1959.8775 87.877949,1959.44801 87.9465,1958.98725 M89.625,1959.23925 C89.5916969,1959.46069 89.4717296,1959.65982 89.2915241,1959.79275 C89.1113187,1959.92569 88.8856581,1959.98154 88.66425,1959.948 M105.069,1962.96525 C105.29296,1962.96465 105.507919,1963.05335 105.666283,1963.21172 C105.824647,1963.37008 105.91335,1963.58504 105.91275,1963.809 M104.22525,1963.8 C104.22465,1963.57604 104.313353,1963.36108 104.471717,1963.20272 C104.630081,1963.04435 104.84504,1962.95565 105.069,1962.95625 M105.069,1964.65275 C104.60301,1964.65275 104.22525,1964.27499 104.22525,1963.809 M105.91275,1963.8 C105.91275,1964.26599 105.53499,1964.64375 105.069,1964.64375 M114.9375,1928.763 C115.40349,1928.763 115.78125,1929.14076 115.78125,1929.60675 M114.09375,1929.6 C114.09375,1929.13401 114.47151,1928.75625 114.9375,1928.75625 M114.9375,1930.4505 C114.47151,1930.4505 114.09375,1930.07274 114.09375,1929.60675 M115.78125,1929.6 C115.78125,1930.06599 115.40349,1930.44375 114.9375,1930.44375 M125.90625,1938.47175 C126.37224,1938.47175 126.75,1938.84951 126.75,1939.3155 M125.0625,1939.3155 C125.0625,1938.84951 125.44026,1938.47175 125.90625,1938.47175 M125.90625,1940.15925 C125.44026,1940.15925 125.0625,1939.78149 125.0625,1939.3155 M126.75,1939.3155 C126.75,1939.78149 126.37224,1940.15925 125.90625,1940.15925 M125.90625,1946.90925 C126.37224,1946.90925 126.75,1947.28701 126.75,1947.753 M125.0625,1947.753 C125.0625,1947.28701 125.44026,1946.90925 125.90625,1946.90925 M125.90625,1948.59675 C125.44026,1948.59675 125.0625,1948.21899 125.0625,1947.753 M126.75,1947.753 C126.75,1948.21899 126.37224,1948.59675 125.90625,1948.59675 M98.0625,1951.875 L98.0625,1973.8125 M81.80625,1945.3725 L98.0625,1951.875 L114.31875,1945.3725 M94.83375,1973.12625 C96.8889945,1974.04133 99.2360055,1974.04133 101.29125,1973.12625 L112.93275,1967.95125 C114.151951,1967.4096 114.937669,1966.2006 114.9375,1964.8665 L114.9375,1947.3165 C114.937669,1945.9824 114.151951,1944.7734 112.93275,1944.23175 L101.29125,1939.05675 C99.2360055,1938.14167 96.8889945,1938.14167 94.83375,1939.05675 L83.19225,1944.225 C81.9700611,1944.76797 81.1837663,1945.98139 81.1875,1947.31875 L81.1875,1964.86875 C81.1873307,1966.20285 81.9730495,1967.41185 83.19225,1967.9535 L94.83375,1973.12625 Z" id="Path-3"></path>
        </g>
    </g>
</svg>