<svg xmlns="http://www.w3.org/2000/svg" width="74" height="28" viewBox="0 0 74 28">
    <path fill="#F91F4C" fill-rule="evenodd" d="M0 27.538V0h12.39c6.563 0 9.359 2.927 9.359 7.202v.154c0 3.081-1.592 5.123-4.7 5.931 3.418.578 5.554 2.62 5.554 6.432v.154c0 4.93-3.223 7.665-10.097 7.665H0zm7.767-5.277h3.302c2.524 0 3.69-1.155 3.69-3.196v-.154c0-2.08-1.127-3.159-3.923-3.159H7.767v6.51zm0-11.323h3.03c2.485 0 3.417-.847 3.417-2.811v-.155c0-1.887-1.01-2.734-3.417-2.734h-3.03v5.7zM35.691 28c-6.369 0-11.03-3.697-11.03-10.283v-.308c0-6.47 4.855-10.553 10.992-10.553 5.553 0 10.33 3.158 10.33 10.398v1.81H31.691c.194 2.658 1.748 4.199 4.233 4.199 2.292 0 3.263-1.04 3.535-2.388h6.524C45.362 25.42 41.828 28 35.691 28zM31.77 15.175h7.457c-.117-2.427-1.32-3.775-3.573-3.775-2.098 0-3.535 1.348-3.884 3.775zM51.13 19.4l-.372.372a1.736 1.736 0 0 1-2.441.007 1.702 1.702 0 0 1-.007-2.42l10.298-10.27a3.255 3.255 0 0 1 4.592 0l10.297 10.27c.672.67.669 1.753-.007 2.42a1.736 1.736 0 0 1-2.441-.007l-.509-.507v8.273h-6.52v-6.376c0-2.272-1.165-4.51-3.185-4.51-2.058 0-3.184 1.667-3.184 4.51v6.376h-6.52V19.4zM50.92 7.275h4.705v1.5l-4.123 4.122h-.582V7.275z"/>
</svg>
