<?xml version="1.0" encoding="UTF-8"?>
<svg width="49px" height="49px" viewBox="0 0 49 49" version="1.1" xmlns="http://www.w3.org/2000/svg" xmlns:xlink="http://www.w3.org/1999/xlink">
    <!-- Generator: Sketch 54.1 (76490) - https://sketchapp.com -->
    <title>Path 2</title>
    <desc>Created with Sketch.</desc>
    <g id="Page-1" stroke="none" stroke-width="1" fill="none" fill-rule="evenodd" stroke-linecap="round" stroke-linejoin="round">
        <g id="desktop-1440" transform="translate(-78.000000, -1721.000000)" stroke="#F91F4C" stroke-width="3.5">
            <path d="M112.771739,1734.46326 L112.771739,1766.06304 C112.771739,1766.87346 112.114766,1767.53043 111.304348,1767.53043 L87.826087,1767.53043 C87.0156691,1767.53043 86.3586957,1766.87346 86.3586957,1766.06304 L86.3586957,1735.24783 M118.641304,1761.66087 L121.576087,1767.53043 L124.51087,1761.66087 L124.51087,1742.58478 C124.51087,1740.96395 123.196923,1739.65 121.576087,1739.65 L121.576087,1739.65 C119.955251,1739.65 118.641304,1740.96395 118.641304,1742.58478 L118.641304,1761.66087 Z M86.3586957,1723.5087 L86.3586957,1723.5087 C89.600367,1723.5087 92.2282609,1726.13659 92.2282609,1729.37826 L92.2282609,1729.37826 C92.2282609,1732.61993 89.600367,1735.24783 86.3586957,1735.24783 L109.836957,1735.24783 C113.078628,1735.24783 115.706522,1732.61993 115.706522,1729.37826 L115.706522,1729.37826 C115.706522,1726.13659 113.078628,1723.5087 109.836957,1723.5087 L86.3586957,1723.5087 Z M86.3586957,1723.5087 L86.3586957,1723.5087 C83.1170243,1723.5087 80.4891304,1726.13659 80.4891304,1729.37826 L80.4891304,1752.85652 M96.6304348,1744.05217 L99.5652174,1746.98696 L103.967391,1742.58478 M96.6304348,1754.32391 L99.5652174,1757.2587 L103.967391,1752.85652" id="Path-2"></path>
        </g>
    </g>
</svg>